<svg width="670" height="512" viewBox="0 0 670 512" fill="none" xmlns="http://www.w3.org/2000/svg">
<g id="Frame" clip-path="url(#clip0_2_55)">
<g id="small-book">
<path id="Vector" d="M387.761 509.543C379.829 508.978 377.761 510.543 365.761 509.543H343.761L346.623 456.894L381.257 470.773L553.371 474.998L553.27 475.29C553.192 475.515 545.551 497.867 551.524 506.332L551.771 506.682L551.288 506.686L393.4 508.134C391.677 508.15 389.471 509.665 387.761 509.543Z" fill="#F2F2F2"/>
<path id="Vector_2" d="M396.688 510.231C381.367 509.141 365.502 515.097 352.26 508.373L341.676 509.014L341.646 508.925C341.564 508.681 336.564 469.339 346.672 454.085L347.117 453.414L347.464 457.027L344.132 506.035L351.518 503.57C369.455 512.013 390.787 506.437 411.317 506.359L551.031 505.843C553.958 505.833 556.396 507.833 556.474 510.302L556.482 510.543L405.127 510.531C402.305 510.531 399.492 510.431 396.688 510.231Z" fill="url(#paint0_linear_2_55)"/>
<path id="Vector_3" d="M543.667 485.616L386.44 482.491L386.279 482.431L349.132 468.509L349.834 466.636L386.821 480.499L543.707 483.616L543.667 485.616Z" fill="url(#paint1_linear_2_55)"/>
<path id="Vector_4" d="M542.828 494.035L385.601 490.91L385.441 490.85L348.293 476.928L348.995 475.055L385.983 488.918L542.868 492.035L542.828 494.035Z" fill="#874BA4" fill-opacity="0.27"/>
<path id="Vector_5" d="M541.989 502.455L384.762 499.329L384.602 499.269L347.454 485.346L348.156 483.473L385.144 497.337L542.029 500.455L541.989 502.455Z" fill="url(#paint2_linear_2_55)"/>
<g id="1st-page">
<path id="Vector_6" d="M554.63 473.22L554.597 473.218L378.763 469.189L378.641 469.133L346.939 454.452L347.261 453.961L348.224 453.973L379.057 468.259L553.261 472.247L554.657 472.28L554.63 473.22Z" fill="url(#paint3_linear_2_55)"/>
<path id="Vector_7" d="M417.935 455L415.703 454.969L365.311 454.223L362.923 454.19C374.437 466.448 399.895 469.515 437.211 464.766L417.935 455Z" fill="url(#paint4_linear_2_55)"/>
<path id="Vector_8" d="M397.774 475.542C383.197 474.557 368.984 470.546 356.041 463.766L345.143 457.986L345.428 455.129C345.507 454.709 345.739 454.334 346.078 454.075C346.418 453.816 346.841 453.692 347.266 453.727L348.228 453.738L494.857 455.896C504.453 456.015 513.962 457.741 522.989 461.002L554.937 472.601L554.92 472.77C554.652 475.462 551.938 477.542 548.74 477.505L404.306 475.812C402.121 475.787 399.944 475.696 397.774 475.542Z" fill="url(#paint5_linear_2_55)"/>
</g>
</g>
<g id="inn-page">
<path id="Vector_9" d="M445.165 248.01C444.952 253.832 442.436 259.332 438.17 263.3C433.904 267.267 428.237 269.379 422.415 269.17C412.795 268.83 401.315 268.66 388.855 268.92C348.165 269.79 297.045 275.39 266.295 295.53C262.43 298.067 257.863 299.32 253.245 299.11C252.905 299.09 252.575 299.07 252.235 299.04C247.447 298.602 242.935 296.603 239.395 293.35C222.455 277.85 183.605 259.08 94.6746 257.76C94.3046 257.76 93.9446 257.74 93.5846 257.72C90.7043 257.539 87.8879 256.792 85.2964 255.521C82.705 254.251 80.3893 252.482 78.4818 250.317C76.5742 248.151 75.1121 245.631 74.1792 242.899C73.2463 240.168 72.8607 237.28 73.0446 234.4L81.7846 95.69L83.0946 74.9L85.3946 38.53C85.6266 34.8673 87.2442 31.4302 89.9188 28.9172C92.5935 26.4041 96.1246 25.0035 99.7946 25H99.8846L152.865 25.31C175.185 26.32 193.671 29.1633 208.325 33.84C213.33 35.3921 218.2 37.3521 222.885 39.7C229.284 42.8024 235.033 47.0956 239.825 52.3501C242.809 55.7067 246.881 57.9052 251.325 58.56C252.014 58.663 252.708 58.7264 253.405 58.75C257.503 58.9196 261.547 57.7623 264.935 55.45C299.545 32.26 370.075 30.5 409.025 31.5C414.472 31.6271 419.677 33.7773 423.625 37.5318C427.574 41.2863 429.983 46.3762 430.385 51.81L431.965 72.5001L433.535 93.13L442.595 212.36L445.115 245.53C445.176 246.355 445.193 247.183 445.165 248.01Z" fill="url(#paint6_linear_2_55)"/>
</g>
<g id="big-book">
<path id="Vector_10" d="M382.032 190.769V191.421C380.63 189.778 379.199 188.149 377.783 186.52C377.188 185.84 376.593 185.16 375.998 184.48C373.477 181.619 370.941 178.768 368.392 175.925C365.828 173.092 363.264 170.26 360.672 167.441C360.049 166.761 359.426 166.081 358.789 165.401C358.278 164.83 357.724 164.3 357.131 163.815C356.533 163.317 355.846 162.937 355.106 162.696C354.254 162.46 353.356 162.45 352.5 162.668C351.522 162.894 350.587 163.249 349.639 163.546C348.661 163.872 347.698 164.183 346.721 164.495C344.766 165.132 342.826 165.77 340.871 166.407C340.847 166.417 340.822 166.421 340.797 166.421C340.771 166.421 340.746 166.416 340.723 166.406C340.699 166.396 340.678 166.382 340.66 166.364C340.642 166.346 340.628 166.324 340.619 166.301L340.616 166.294C340.605 166.267 340.6 166.238 340.601 166.209C340.602 166.18 340.61 166.152 340.623 166.126C340.637 166.1 340.656 166.078 340.679 166.06C340.702 166.043 340.729 166.031 340.758 166.025C341.239 165.869 341.735 165.713 342.231 165.557C344.199 164.906 346.154 164.268 348.123 163.631C349.1 163.305 350.077 162.994 351.055 162.682C351.961 162.338 352.919 162.146 353.888 162.115C355.47 162.229 356.954 162.926 358.052 164.07C358.661 164.637 359.214 165.231 359.766 165.841C360.417 166.549 361.069 167.257 361.721 167.965C364.341 170.826 366.942 173.697 369.525 176.577C372.117 179.466 374.685 182.361 377.23 185.26C377.414 185.472 377.598 185.685 377.783 185.897C379.213 187.511 380.615 189.141 382.032 190.769Z" fill="white"/>
<path id="Vector_11" d="M356.911 166.425C356.376 165.735 355.663 165.205 354.849 164.892L354.043 164.92C360.365 174.757 368.647 183.185 378.373 189.678C371.219 181.927 364.065 174.176 356.911 166.425Z" fill="white"/>
<path id="Vector_12" d="M488.841 268.655L456.754 96.8452C456.205 94.013 454.71 91.4513 452.514 89.5802C450.318 87.7092 447.551 86.6397 444.668 86.5471C444.408 86.5414 444.149 86.5414 443.889 86.5471L422.031 87.3313L419.678 87.4177L408.769 87.8098L406.416 87.8906L399.399 88.1443L257.901 93.2241C257.688 93.2357 257.469 93.2356 257.256 93.2298L225.548 92.5668L213.814 92.3246L213.44 92.3189L204.779 92.1344L129.314 90.566L109.306 90.145L99.4399 89.9433L97.0759 89.8913L85.8265 89.6607L83.4682 89.6088L71.9592 89.3724L69.6009 89.3205L56.956 89.0552L54.9725 89.0149L43.6942 88.7785L41.9126 88.7439H41.6531C38.6589 88.7561 35.7655 89.8265 33.4843 91.7658C31.203 93.7052 29.6809 96.3886 29.187 99.3418L0.166674 277.627C-0.128025 279.433 -0.0265636 281.281 0.464007 283.044C0.954578 284.807 1.82251 286.442 3.00774 287.836C4.19297 289.231 5.66712 290.35 7.32808 291.118C8.98904 291.886 10.7971 292.284 12.627 292.284H179.288C181.741 292.291 184.128 293.078 186.103 294.533L189.263 296.874C191.441 298.476 194.072 299.345 196.776 299.353C228.964 290.857 262.806 290.857 294.994 299.353C296.654 299.357 298.297 299.032 299.831 298.397C301.364 297.761 302.756 296.828 303.926 295.651C305.926 293.651 308.596 292.462 311.421 292.313L477.09 283.583C478.887 283.489 480.642 283.012 482.24 282.185C483.837 281.357 485.239 280.198 486.352 278.784C487.464 277.371 488.262 275.736 488.692 273.989C489.121 272.242 489.172 270.423 488.841 268.655Z" fill="url(#paint7_linear_2_55)"/>
<path id="Vector_13" d="M106.131 67.6626C138.058 57.4763 173.677 60.1731 203.924 74.5235C212.554 78.5968 220.704 83.6168 228.225 89.4911C230.353 91.1609 233.38 88.1741 231.23 86.4865C203.449 64.9388 168.543 54.7027 133.525 57.8347C123.837 58.7016 114.273 60.6232 105.002 63.5652C102.406 64.3932 103.516 68.4972 106.131 67.6626Z" fill="url(#paint8_linear_2_55)"/>
<path id="Vector_14" d="M281.815 91.1395C311.499 75.5373 347.045 72.135 379.319 80.9915C388.52 83.5103 397.412 87.0459 405.831 91.5327C408.243 92.8196 410.392 89.1528 407.976 87.8636C377.216 71.4503 340.292 67.672 306.701 76.8214C297.331 79.3783 288.267 82.9491 279.67 87.4704C277.249 88.7432 279.394 92.412 281.815 91.1395Z" fill="url(#paint9_linear_2_55)"/>
<path id="Vector_15" d="M281.815 119.468C311.499 103.866 347.045 100.463 379.319 109.32C388.52 111.839 397.412 115.374 405.831 119.861C408.243 121.148 410.392 117.481 407.976 116.192C377.216 99.7785 340.292 96.0002 306.701 105.15C297.331 107.707 288.267 111.277 279.67 115.799C277.249 117.071 279.394 120.74 281.815 119.468Z" fill="url(#paint10_linear_2_55)"/>
<path id="Vector_16" d="M409.015 146.276C409.038 145.912 408.95 145.549 408.763 145.234C408.576 144.92 408.299 144.67 407.968 144.515C383.327 131.612 355.387 126.379 327.746 129.489C327.573 129.502 327.413 129.53 327.226 129.544H327.219C327.049 129.559 326.88 129.585 326.713 129.62C310.273 131.512 294.324 136.428 279.671 144.12C279.352 144.31 279.087 144.58 278.904 144.904C278.72 145.227 278.624 145.592 278.624 145.964V198.81C278.629 199.135 278.709 199.455 278.856 199.745C279.003 200.035 279.214 200.288 279.473 200.484C279.732 200.681 280.033 200.816 280.352 200.879C280.671 200.942 281 200.932 281.315 200.849C281.966 200.662 282.618 200.481 283.284 200.308C298.097 196.298 313.304 193.919 328.634 193.214C328.96 193.2 329.286 193.186 329.625 193.173C342.111 192.636 354.62 193.086 367.036 194.518C367.296 194.532 367.555 194.56 367.812 194.601C368.45 194.67 369.102 194.746 369.74 194.83C369.996 194.857 370.239 194.885 370.475 194.927C372.957 195.239 375.419 195.592 377.888 195.974C381.452 196.542 385.016 197.176 388.58 197.874C388.802 197.915 389.031 197.971 389.26 198.013C394.98 199.15 400.673 200.467 406.339 201.923C406.654 202.005 406.984 202.014 407.303 201.949C407.623 201.884 407.923 201.748 408.182 201.55C408.441 201.353 408.652 201.099 408.799 200.808C408.946 200.517 409.024 200.197 409.029 199.871V146.359C409.031 146.331 409.027 146.302 409.015 146.276Z" fill="url(#paint11_linear_2_55)"/>
<path id="Vector_17" d="M331.078 132.37C329.521 131.608 327.736 131.451 326.071 131.93C325.335 132.206 324.661 132.625 324.089 133.164C323.516 133.702 323.056 134.349 322.736 135.067C322.159 136.442 321.789 137.896 321.638 139.381C321.55 139.965 321.545 140.701 322.132 140.974C322.345 141.051 322.575 141.069 322.797 141.025C323.019 140.981 323.225 140.877 323.393 140.724C323.696 140.425 323.946 140.077 324.131 139.694C325.15 138.108 326.553 136.805 328.209 135.905C329.864 135.005 331.72 134.536 333.605 134.543L335.174 135.168C333.94 134.057 332.562 133.116 331.078 132.37Z" fill="#FF6582"/>
<path id="Vector_18" d="M348.056 144.55C346.839 142.758 345.396 140.844 343.137 140.259C340.521 139.582 337.833 140.928 335.553 142.256C328.774 146.204 322.209 150.51 315.887 155.154L315.894 155.224L330.569 154.323C334.103 154.106 337.759 153.859 340.883 152.371C342.004 151.668 343.258 151.201 344.566 150.999C345.378 151.043 346.173 151.248 346.905 151.6C347.637 151.953 348.293 152.448 348.833 153.055C355.596 159.466 357.554 169.269 365.141 174.901C360.313 164.32 354.597 154.167 348.056 144.55Z" fill="white"/>
<path id="Vector_19" d="M329.628 193.171C329.288 193.186 328.962 193.2 328.636 193.214C326.271 192.364 323.849 191.613 321.399 190.962C319.812 190.537 318.198 190.155 316.583 189.829C314.755 189.432 312.914 189.121 311.073 188.851C307.567 188.342 304.034 188.044 300.492 187.959C300.466 187.962 300.438 187.959 300.413 187.951C300.387 187.943 300.363 187.929 300.343 187.911C300.323 187.893 300.307 187.871 300.296 187.846C300.285 187.822 300.279 187.795 300.279 187.768C300.279 187.741 300.285 187.714 300.296 187.69C300.307 187.665 300.323 187.643 300.343 187.625C300.363 187.607 300.387 187.593 300.413 187.585C300.438 187.577 300.466 187.574 300.492 187.577C300.945 187.577 301.399 187.591 301.838 187.619C305.387 187.75 308.925 188.096 312.433 188.653C314.26 188.951 316.087 189.305 317.9 189.701C319.543 190.07 321.186 190.48 322.801 190.934C325.109 191.585 327.385 192.331 329.628 193.171Z" fill="white"/>
<path id="Vector_20" d="M370.477 194.928C370.237 194.885 369.996 194.857 369.741 194.829C368.763 194.021 367.772 193.257 366.738 192.506C365.449 191.571 364.118 190.693 362.758 189.871C359.746 188.043 356.603 186.443 353.353 185.084C348.215 182.944 342.896 181.266 337.461 180.07C331.26 178.711 324.984 177.728 318.665 177.124C312.348 176.472 306.002 176.076 299.657 175.679C299.388 175.665 299.373 175.268 299.657 175.282C300.45 175.339 301.243 175.381 302.05 175.438C308.467 175.835 314.883 176.288 321.257 177.01C327.577 177.688 333.846 178.776 340.024 180.268C345.299 181.568 350.447 183.336 355.407 185.551C358.259 186.833 361.023 188.305 363.678 189.956C365.364 191.019 366.993 192.152 368.551 193.356C369.203 193.865 369.854 194.376 370.477 194.928Z" fill="white"/>
<path id="Vector_21" d="M367.814 194.602C367.556 194.561 367.296 194.532 367.035 194.517C366.738 194.276 366.426 194.05 366.115 193.823C363.934 192.262 361.659 190.838 359.302 189.56C357.161 188.396 354.963 187.342 352.715 186.401C347.58 184.255 342.261 182.577 336.823 181.387C330.623 180.029 324.346 179.045 318.027 178.441C311.71 177.789 305.365 177.393 299.019 176.996C298.75 176.968 298.75 176.585 299.019 176.6C299.827 176.656 300.62 176.699 301.413 176.755C307.829 177.152 314.246 177.605 320.619 178.328C326.939 179.005 333.209 180.093 339.387 181.585C344.662 182.883 349.81 184.651 354.769 186.869C356.639 187.718 358.466 188.639 360.251 189.645C362.897 191.098 365.426 192.755 367.814 194.602Z" fill="white"/>
<path id="Vector_22" d="M389.259 198.016C389.032 197.973 388.805 197.917 388.579 197.874C388.324 197.605 388.083 197.322 387.842 197.038C386.624 195.636 385.42 194.22 384.23 192.789C379.542 187.208 375.095 181.458 370.902 175.594C367.304 170.58 363.891 165.467 360.662 160.254C359.118 157.79 357.63 155.297 356.172 152.775C355.038 150.821 353.934 148.862 352.857 146.897C352.545 146.331 352.248 145.764 351.951 145.198C351.256 143.866 350.562 142.521 349.826 141.203C349.025 139.59 347.85 138.191 346.398 137.124C345.673 136.638 344.833 136.35 343.962 136.289C342.734 136.293 341.526 136.605 340.449 137.195C332.525 140.885 325.049 145.471 318.169 150.863C311.449 156.09 305.373 162.095 300.067 168.753C299.898 168.951 299.529 168.767 299.685 168.554C300.322 167.761 300.974 166.968 301.625 166.189C306.724 160.157 312.467 154.7 318.75 149.914C318.764 149.9 318.792 149.886 318.806 149.872C319.359 149.433 319.911 149.008 320.478 148.597C323.986 146.014 327.636 143.631 331.413 141.458C333.339 140.339 335.308 139.277 337.319 138.271C337.815 138.017 338.325 137.762 338.834 137.521C339.344 137.266 339.854 137.025 340.364 136.784C341.374 136.269 342.477 135.966 343.608 135.892C347.545 135.835 349.571 139.801 350.973 142.478C351.412 143.314 351.866 144.15 352.305 144.985C354.004 148.144 355.775 151.288 357.616 154.39C358.735 156.317 359.896 158.229 361.072 160.127C362.758 162.832 364.486 165.509 366.285 168.172C366.285 168.174 366.285 168.176 366.285 168.177C366.286 168.179 366.287 168.181 366.288 168.182C366.29 168.183 366.291 168.184 366.293 168.185C366.295 168.186 366.296 168.186 366.298 168.186C368.38 171.331 370.548 174.418 372.786 177.492C376.624 182.747 380.647 187.884 384.854 192.903C386.299 194.63 387.767 196.335 389.259 198.016Z" fill="white"/>
<path id="Vector_23" d="M338.726 135.46L338.334 135.631C337.436 134.116 336.178 132.846 334.672 131.934C333.165 131.021 331.456 130.496 329.697 130.403C323.899 129.991 318.805 133.856 318.342 139.017C318.154 141.142 318.769 143.261 320.066 144.955L319.702 145.17C318.351 143.406 317.711 141.199 317.906 138.986C318.388 133.611 323.693 129.587 329.732 130.016C331.564 130.112 333.343 130.66 334.912 131.609C336.481 132.559 337.791 133.882 338.726 135.46Z" fill="#FF6582"/>
<path id="Vector_24" d="M310.072 145.903C308.55 145.241 306.892 144.951 305.236 145.056C303.58 145.162 301.972 145.66 300.547 146.509C305.751 147.308 310.911 148.38 316.003 149.72C313.894 148.62 312.245 146.897 310.072 145.903Z" fill="white"/>
<path id="Vector_25" d="M300.517 146.505L299.944 146.919C300.138 146.774 300.34 146.638 300.547 146.509L300.517 146.505Z" fill="white"/>
<path id="Vector_26" d="M317.777 148.909C317.548 148.683 317.321 148.456 317.091 148.229C315.328 146.311 313.205 144.757 310.843 143.657C309.64 143.15 308.35 142.884 307.045 142.873C305.696 142.905 304.363 143.164 303.101 143.639C302.507 143.85 301.927 144.09 301.355 144.345C300.702 144.637 300.06 144.95 299.421 145.264C298.222 145.855 297.038 146.472 295.87 147.114C293.546 148.393 291.295 149.769 289.117 151.242C287.987 152.006 286.881 152.796 285.799 153.61C284.792 154.366 283.805 155.143 282.839 155.94C282.632 156.11 282.324 155.835 282.53 155.665C282.785 155.454 283.043 155.244 283.3 155.037C284.028 154.452 284.767 153.878 285.518 153.315C286.887 152.286 288.292 151.297 289.732 150.348C291.972 148.872 294.288 147.495 296.682 146.219C297.878 145.582 299.091 144.971 300.32 144.387C300.691 144.211 301.067 144.039 301.446 143.876C302.314 143.487 303.209 143.163 304.124 142.906C305.437 142.529 306.81 142.409 308.168 142.552C309.468 142.718 310.731 143.107 311.899 143.701C314.215 144.999 316.304 146.665 318.085 148.633C318.271 148.82 317.964 149.096 317.777 148.909Z" fill="white"/>
<path id="Vector_27" d="M106.131 95.9909C138.058 85.8046 173.677 88.5014 203.924 102.852C212.554 106.925 220.704 111.945 228.225 117.819C230.353 119.489 233.38 116.502 231.23 114.815C203.449 93.267 168.543 83.0309 133.525 86.1629C123.837 87.0298 114.273 88.9514 105.002 91.8934C102.406 92.7214 103.516 96.8254 106.131 95.9909Z" fill="url(#paint12_linear_2_55)"/>
<path id="Vector_28" d="M106.131 124.319C138.058 114.133 173.677 116.83 203.924 131.18C212.554 135.253 220.704 140.273 228.225 146.148C230.353 147.817 233.38 144.831 231.23 143.143C203.449 121.595 168.543 111.359 133.525 114.491C123.837 115.358 114.273 117.28 105.002 120.222C102.406 121.05 103.516 125.154 106.131 124.319Z" fill="url(#paint13_linear_2_55)"/>
<path id="Vector_29" d="M106.131 152.647C138.058 142.461 173.677 145.158 203.924 159.508C212.554 163.581 220.704 168.601 228.225 174.476C230.353 176.146 233.38 173.159 231.23 171.471C203.449 149.923 168.543 139.687 133.525 142.819C123.837 143.686 114.273 145.608 105.002 148.55C102.406 149.378 103.516 153.482 106.131 152.647Z" fill="url(#paint14_linear_2_55)"/>
<path id="Vector_30" d="M106.131 180.976C138.058 170.789 173.677 173.486 203.924 187.836C212.554 191.91 220.704 196.93 228.225 202.804C230.353 204.474 233.38 201.487 231.23 199.799C203.449 178.252 168.543 168.016 133.525 171.148C123.837 172.014 114.273 173.936 105.002 176.878C102.406 177.706 103.516 181.81 106.131 180.976Z" fill="url(#paint15_linear_2_55)"/>
<path id="Vector_31" d="M106.131 209.304C138.058 199.117 173.677 201.814 203.924 216.165C212.554 220.238 220.704 225.258 228.225 231.132C230.353 232.802 233.38 229.815 231.23 228.128C203.449 206.58 168.543 196.344 133.525 199.476C123.837 200.343 114.273 202.264 105.002 205.206C102.406 206.034 103.516 210.138 106.131 209.304Z" fill="url(#paint16_linear_2_55)"/>
<path id="Vector_32" d="M251.679 49.3082H249.599V291.543H251.679V49.3082Z" fill="#E6E6E6"/>
</g>
<g id="girl">
<path id="Vector_33" d="M559.613 161.814L562.687 168.965L557.663 194.36L506.408 187.234L506.817 156.267L507.846 149.485L559.613 161.814Z" fill="#FFB6B6"/>
<path id="Vector_34" d="M586.094 490.943H574.786L569.404 447.327H586.094V490.943Z" fill="#FFB6B6"/>
<path id="Vector_35" d="M552.458 505.705C552.459 506.986 552.968 508.214 553.874 509.12C554.78 510.026 556.008 510.535 557.289 510.536H578.802L582.511 502.881L583.951 510.536H592.059L589.78 483.194L586.094 482.978L573.71 482.241L571.714 482.116V489.862L554.545 501.724C553.901 502.169 553.374 502.764 553.011 503.457C552.648 504.151 552.458 504.922 552.458 505.705Z" fill="#2F2E41"/>
<path id="Vector_36" d="M481.576 440.943H470.268L463.616 376.73L484.863 375.461L481.576 440.943Z" fill="#FFB6B6"/>
<path id="Vector_37" d="M447.939 455.705C447.94 456.986 448.45 458.214 449.355 459.12C450.261 460.026 451.489 460.535 452.77 460.536H474.283L477.992 452.881L479.432 460.536H487.541L485.261 433.194L481.972 433.001L469.373 432.241L467.196 432.116V439.862L450.026 451.724C449.382 452.169 448.856 452.764 448.492 453.457C448.129 454.151 447.939 454.922 447.939 455.705Z" fill="#2F2E41"/>
<path id="Vector_38" d="M590.894 453.331H590.85L588.675 382.412C590.082 379.697 590.797 376.677 590.754 373.619C590.712 370.562 589.914 367.562 588.432 364.888L588.121 364.324L588.928 360.582C589.965 355.774 589.489 350.763 587.566 346.237L585.537 280.083C592.785 233.109 558.242 202.474 558.242 202.474L561.417 177.853L505.547 179.123L506.497 202.474L495.388 240.642C489.542 297.602 450.194 333.404 456.175 387.873C456.187 388.03 456.164 388.187 456.106 388.333C455.5 390.178 455.286 392.13 455.479 394.063C455.673 395.996 456.269 397.867 457.23 399.555C457.479 399.986 457.65 400.457 457.735 400.947C458.968 410.496 459.128 398.417 460.761 407.882L460.443 408.043C459.299 408.437 458.809 410.022 459.347 411.582C459.885 413.142 461.249 414.087 462.393 413.692L492.26 414.012C493.404 413.617 493.895 412.032 493.357 410.472C492.818 408.912 491.454 407.967 490.31 408.362L488.452 409.302L491.561 399.131L492.65 398.113C493.173 397.626 493.578 397.027 493.835 396.361C494.093 395.695 494.197 394.979 494.139 394.267C494.081 393.555 493.863 392.866 493.501 392.25C493.139 391.634 492.642 391.108 492.048 390.712L495.145 374.184L494.705 361.684L495.611 347.504L534.8 290.718L550.655 369.156L566.85 454.12C566.473 454.461 566.189 454.893 566.026 455.375C565.863 455.857 565.827 456.373 565.921 456.873C566.07 457.571 566.458 458.196 567.017 458.641C567.577 459.085 568.273 459.321 568.987 459.308H590.973C591.434 459.307 591.888 459.2 592.301 458.995C592.714 458.79 593.074 458.493 593.353 458.126C593.632 457.759 593.823 457.333 593.91 456.88C593.998 456.427 593.979 455.961 593.857 455.516C593.671 454.877 593.281 454.317 592.745 453.922C592.21 453.527 591.559 453.319 590.894 453.331Z" fill="#2F2E41"/>
<path id="Vector_39" d="M571.343 41.1403C571.344 45.6682 570.234 50.1273 568.11 54.1261C565.986 58.1249 562.913 61.5412 559.161 64.0751C555.408 66.609 551.091 68.183 546.589 68.6589C542.086 69.1348 537.535 68.4982 533.336 66.8048C529.136 65.1114 525.417 62.413 522.504 58.9466C519.591 55.4802 517.573 51.3517 516.628 46.9235C515.684 42.4954 515.84 37.9029 517.084 33.5494C518.328 29.1958 520.622 25.2142 523.765 21.9541L523.897 21.8215C524.119 21.5891 524.34 21.3567 524.572 21.1354L524.577 21.1346L524.58 21.1322L524.583 21.1285L524.583 21.1243C524.901 20.8927 525.193 20.6295 525.458 20.3387C529.192 15.1207 533.425 10.7452 543.681 13.4787C558.446 17.4141 571.343 25.86 571.343 41.1403Z" fill="#2F2E41"/>
<path id="Vector_40" d="M419.391 29.2986C419.329 30.7786 419.591 32.2543 420.161 33.6218C420.73 34.9893 421.592 36.2154 422.687 37.2136C423.781 38.2118 425.081 38.958 426.495 39.3994C427.909 39.8409 429.403 39.967 430.87 39.7688L502.208 98.3154L513.104 79.1632L439.556 27.6362C439.059 25.1922 437.684 23.0152 435.689 21.5177C433.695 20.0202 431.221 19.3062 428.735 19.5111C426.25 19.7161 423.926 20.8256 422.204 22.6295C420.481 24.4334 419.481 26.8063 419.391 29.2986Z" fill="#FFB6B6"/>
<path id="Vector_41" d="M532.33 115.581C532.33 115.581 532.308 113.473 520.968 113.554C506.891 113.655 468.122 93.4448 471.514 74.4115C469.904 75.139 468.097 75.3102 466.379 74.8981C464.661 74.486 463.129 73.5141 462.024 72.1353L480.898 53.9637C486.82 54.3637 486.881 58.3268 486.373 60.6024L501.542 66.6297L541.048 89.3269L534.072 112.126L532.33 115.581Z" fill="#B0AFBC"/>
<path id="Vector_42" d="M536.866 70.7358C549.676 70.7358 560.061 60.3509 560.061 47.5404C560.061 34.7299 549.676 24.345 536.866 24.345C524.055 24.345 513.67 34.7299 513.67 47.5404C513.67 60.3509 524.055 70.7358 536.866 70.7358Z" fill="#FFB7B7"/>
<path id="Vector_43" d="M504.986 162.912C503.705 164.622 503.051 166.72 503.133 168.856C503.216 170.991 504.03 173.032 505.44 174.638C505.451 175.319 505.553 175.976 506.517 178.415C506.643 178.651 506.791 178.875 506.959 179.084C506.991 179.135 507.025 179.184 507.061 179.231C508.077 180.544 509.489 181.495 511.087 181.942L553.547 193.793L559.16 195.357L560.147 195.63L560.691 187.963C561.954 186.917 562.8 185.453 563.076 183.837C563.353 182.221 563.042 180.559 562.2 179.152L561.417 177.859L565.976 165.6L566.418 164.386L578.042 133.098L578.054 131.011L578.076 128.856L578.19 113.818C578.195 109.079 577.102 104.403 574.997 100.157C572.892 95.9106 569.831 92.2101 566.055 89.3454C562.616 86.7176 558.652 84.861 554.431 83.9019L554.34 83.8906L549.748 77.7099L531.115 79.5698L529.573 82.7338L527.701 86.5443L514.195 94.5848L509.579 105.313L506.46 112.571C501.629 116.041 498.749 120.498 497.921 125.806C496.152 137.078 504.045 148.362 504.986 149.655L505.224 162.595L504.986 162.912Z" fill="#B0AFBC" fill-opacity="0.84"/>
<path id="Vector_44" d="M561.141 53.6212C560.931 53.588 560.72 53.5437 560.51 53.5105C556.892 52.8688 553.274 52.2382 549.667 51.5852L549.335 43.4086L544.964 50.7332C534.995 54.0416 525.668 52.1717 516.893 48.0446C513.999 46.6707 511.191 45.1225 508.484 43.4086C507.593 29.58 513.184 20.727 523.588 21.6555C523.968 21.6894 524.24 21.3015 524.572 21.1354L524.577 21.1346L524.58 21.1321L524.583 21.1285L524.583 21.1243C525.148 20.8587 525.723 20.6043 526.298 20.372C530.803 18.6116 535.714 18.1658 540.462 19.0864C545.21 20.0069 549.599 22.256 553.119 25.5723C560.2 32.3329 563.387 43.4971 561.141 53.6212Z" fill="#2F2E41"/>
<path id="Vector_45" d="M560.51 53.5105C560.51 53.5105 553.639 27.8628 524.185 21.9431C524.152 21.9321 524.041 21.8878 523.897 21.8215C523.809 21.7661 523.698 21.7108 523.588 21.6555C523.92 21.4674 524.24 21.3015 524.572 21.1354L524.577 21.1346L524.58 21.1322L524.583 21.1286L524.583 21.1243C524.871 20.8588 525.159 20.5932 525.458 20.3388L526.298 20.372C526.298 20.372 555.852 15.6917 560.51 53.5105Z" fill="#FD6584"/>
<path id="Vector_46" d="M571.841 215.188C571.296 215.655 570.633 215.962 569.924 216.076C569.216 216.191 568.49 216.109 567.825 215.838C566.503 215.277 565.328 214.418 564.393 213.328C560.578 209.326 557.852 204.413 556.475 199.057L557.748 196.794C557.248 194.002 557.718 191.124 559.08 188.636C560.441 186.149 562.613 184.202 565.234 183.118C566.725 182.486 568.378 182.342 569.956 182.708C570.738 182.902 571.453 183.304 572.026 183.871C572.599 184.439 573.008 185.15 573.21 185.931C573.7 188.352 571.683 190.539 569.64 191.929C566.081 194.344 561.967 195.816 557.684 196.207C562.923 199.16 567.452 203.224 570.953 208.115C571.763 209.135 572.359 210.307 572.709 211.561C572.877 212.19 572.885 212.851 572.734 213.484C572.582 214.118 572.276 214.703 571.841 215.188Z" fill="#2F2E41"/>
<path id="f02c4e45-f306-4b42-b3ad-5ddd3016d7d2" d="M278.647 511.359H667.928C668.259 511.359 668.576 511.228 668.81 510.994C669.044 510.76 669.175 510.443 669.175 510.112C669.175 509.781 669.044 509.464 668.81 509.23C668.576 508.996 668.259 508.865 667.928 508.865H278.647C278.316 508.865 277.999 508.996 277.765 509.23C277.531 509.464 277.4 509.781 277.4 510.112C277.4 510.443 277.531 510.76 277.765 510.994C277.999 511.228 278.316 511.359 278.647 511.359Z" fill="url(#paint17_linear_2_55)"/>
<path id="Vector_47" d="M477.901 215.135C479.376 215 480.803 214.543 482.083 213.797C483.362 213.05 484.463 212.032 485.306 210.815C486.15 209.597 486.716 208.21 486.966 206.749C487.215 205.289 487.141 203.792 486.749 202.364L529.927 182.208L555.921 140.159L535.489 131.91L517.953 165.794L473.568 195.371C471.212 196.189 469.237 197.842 468.019 200.018C466.8 202.194 466.422 204.741 466.956 207.177C467.49 209.613 468.899 211.769 470.916 213.235C472.934 214.702 475.419 215.378 477.901 215.135Z" fill="#FFB6B6"/>
<path id="Vector_48" d="M571.956 99.8773C571.956 99.8773 577.045 101.538 571.46 111.409C566.988 119.31 545.207 164.826 536.317 173.763C537.253 175.262 537.663 177.029 537.483 178.787C537.304 180.545 536.544 182.193 535.325 183.471L514.802 167.185C514.41 161.262 518.33 160.674 520.653 160.874L525.374 144.141L541.842 102.862L568.299 98.6114L571.956 99.8773Z" fill="#B0AFBC"/>
<path id="Vector_49" d="M572.399 22.5082C573.37 18.585 580.409 15.6882 568.351 10.2109C565.424 8.88166 565.546 4.30386 563.07 2.25376C560.595 0.203663 556.969 -0.746789 554.092 0.686152C551.523 1.96576 550.075 4.86157 549.767 7.71527C549.619 10.5874 549.95 13.4642 550.748 16.2274L550.514 16.5689C555.291 20.224 560.067 23.879 564.844 27.534C566.599 28.8771 568.894 30.2835 570.861 29.2757C573.088 28.1348 571.799 24.9372 572.399 22.5082Z" fill="#2F2E41"/>
</g>
</g>
<defs>
<linearGradient id="paint0_linear_2_55" x1="448.41" y1="453.414" x2="448.41" y2="511.628" gradientUnits="userSpaceOnUse">
<stop stop-color="#E460DB"/>
<stop offset="1" stop-color="#CCCCCC" stop-opacity="0"/>
</linearGradient>
<linearGradient id="paint1_linear_2_55" x1="446.419" y1="466.636" x2="446.419" y2="485.616" gradientUnits="userSpaceOnUse">
<stop stop-color="#B282AF"/>
<stop offset="1" stop-color="#E6E6E6" stop-opacity="0"/>
</linearGradient>
<linearGradient id="paint2_linear_2_55" x1="444.742" y1="483.473" x2="444.742" y2="502.455" gradientUnits="userSpaceOnUse">
<stop stop-color="#BA8EB4"/>
<stop offset="1" stop-color="#E6E6E6" stop-opacity="0"/>
</linearGradient>
<linearGradient id="paint3_linear_2_55" x1="450.798" y1="453.961" x2="450.798" y2="473.22" gradientUnits="userSpaceOnUse">
<stop stop-color="#B282AF"/>
<stop offset="1" stop-color="#EB1818" stop-opacity="0"/>
</linearGradient>
<linearGradient id="paint4_linear_2_55" x1="400.067" y1="454.19" x2="400.067" y2="466.893" gradientUnits="userSpaceOnUse">
<stop stop-color="#C54BB9"/>
<stop offset="1" stop-color="#8E3B3B" stop-opacity="0"/>
</linearGradient>
<linearGradient id="paint5_linear_2_55" x1="450.04" y1="453.721" x2="450.04" y2="477.505" gradientUnits="userSpaceOnUse">
<stop stop-color="#874BA4"/>
<stop offset="1" stop-color="#B05C5C" stop-opacity="0"/>
</linearGradient>
<linearGradient id="paint6_linear_2_55" x1="259.089" y1="25" x2="259.089" y2="299.133" gradientUnits="userSpaceOnUse">
<stop stop-color="#27576C"/>
<stop offset="0.0001" stop-color="#3384CE" stop-opacity="0.921875"/>
<stop offset="1" stop-color="#DAE2E6" stop-opacity="0"/>
</linearGradient>
<linearGradient id="paint7_linear_2_55" x1="244.529" y1="86.5428" x2="244.529" y2="299.353" gradientUnits="userSpaceOnUse">
<stop stop-color="#298EC7"/>
<stop offset="1" stop-color="#E4CCE8" stop-opacity="0"/>
</linearGradient>
<linearGradient id="paint8_linear_2_55" x1="167.746" y1="57.281" x2="167.746" y2="89.9823" gradientUnits="userSpaceOnUse">
<stop/>
<stop offset="1" stop-color="#CAC5FF" stop-opacity="0"/>
</linearGradient>
<linearGradient id="paint9_linear_2_55" x1="343.821" y1="71.9518" x2="343.821" y2="91.8024" gradientUnits="userSpaceOnUse">
<stop stop-color="#3F3D56"/>
<stop offset="1" stop-color="#3F3D56" stop-opacity="0"/>
</linearGradient>
<linearGradient id="paint10_linear_2_55" x1="343.821" y1="100.28" x2="343.821" y2="120.131" gradientUnits="userSpaceOnUse">
<stop stop-color="#1A1A1E"/>
<stop offset="1" stop-color="#A9A3F4" stop-opacity="0"/>
</linearGradient>
<linearGradient id="paint11_linear_2_55" x1="343.827" y1="128.615" x2="343.827" y2="201.992" gradientUnits="userSpaceOnUse">
<stop stop-color="#3F3D56"/>
<stop offset="1" stop-color="#3F3D56" stop-opacity="0"/>
</linearGradient>
<linearGradient id="paint12_linear_2_55" x1="167.746" y1="85.6092" x2="167.746" y2="118.311" gradientUnits="userSpaceOnUse">
<stop stop-color="#3F3D56"/>
<stop offset="1" stop-color="#3F3D56" stop-opacity="0"/>
</linearGradient>
<linearGradient id="paint13_linear_2_55" x1="167.746" y1="113.937" x2="167.746" y2="146.639" gradientUnits="userSpaceOnUse">
<stop stop-color="#3F3D56"/>
<stop offset="1" stop-color="#3F3D56" stop-opacity="0"/>
</linearGradient>
<linearGradient id="paint14_linear_2_55" x1="167.746" y1="142.266" x2="167.746" y2="174.967" gradientUnits="userSpaceOnUse">
<stop stop-color="#3F3D56"/>
<stop offset="1" stop-color="#3F3D56" stop-opacity="0"/>
</linearGradient>
<linearGradient id="paint15_linear_2_55" x1="167.746" y1="170.594" x2="167.746" y2="203.295" gradientUnits="userSpaceOnUse">
<stop stop-color="#3F3D56"/>
<stop offset="1" stop-color="#3F3D56" stop-opacity="0"/>
</linearGradient>
<linearGradient id="paint16_linear_2_55" x1="167.746" y1="198.922" x2="167.746" y2="231.623" gradientUnits="userSpaceOnUse">
<stop stop-color="#3F3D56"/>
<stop offset="1" stop-color="#3F3D56" stop-opacity="0"/>
</linearGradient>
<linearGradient id="paint17_linear_2_55" x1="473.288" y1="508.865" x2="473.288" y2="511.359" gradientUnits="userSpaceOnUse">
<stop stop-color="#F3F3F3"/>
<stop offset="1" stop-color="#CCCCCC" stop-opacity="0"/>
</linearGradient>
<clipPath id="clip0_2_55">
<rect width="669.175" height="511.628" fill="white"/>
</clipPath>
</defs>
</svg>
